<svg xmlns="http://www.w3.org/2000/svg" viewBox="0 0 64 64"><switch><g><path fill="#ec1c24" d="M64 43c0 6.075-3.373 11-10 11H10C3.373 54 0 49.075 0 43V21c0-6.075 3.373-11 10-11h44c6.627 0 10 4.925 10 11z"/><g fill="#f9cb38"><path d="M12.971 16.656 15.11 21l4.795.695-3.467 3.375.817 4.78-4.284-2.255-4.285 2.255.818-4.78-3.464-3.375L10.827 21zM20.507 12.994l.593 1.205 1.334.193-.963.939.225 1.325-1.189-.626-1.188.626.225-1.325-.962-.939 1.331-.193zM24.358 17.328l.594 1.204 1.328.194-.959.941.226 1.323-1.189-.625-1.188.625.225-1.323-.961-.941 1.329-.194zM24.358 24.284l.594 1.207 1.328.193-.959.939.226 1.325-1.189-.624-1.188.624.225-1.325-.961-.939 1.329-.193zM20.507 29.17l.593 1.205 1.334.192-.963.938.225 1.327-1.189-.622-1.188.622.225-1.327-.962-.938 1.331-.192z"/></g></g></switch></svg>